<?xml version="1.0" encoding="UTF-8"?>
<svg width="64px" height="64px" viewBox="0 0 64 64" version="1.1" xmlns="http://www.w3.org/2000/svg" xmlns:xlink="http://www.w3.org/1999/xlink">
    <!-- Generator: Sketch 55.1 (78136) - https://sketchapp.com -->
    <title>logo-badge copy</title>
    <desc>Created with Sketch.</desc>
    <g id="Page-2" stroke="none" stroke-width="1" fill="none" fill-rule="evenodd">
        <g id="Desktop-HD" transform="translate(-71.000000, -126.000000)">
            <g id="Group-9" transform="translate(71.000000, 30.000000)">
                <g id="logo-badge-copy" transform="translate(0.000000, 96.000000)">
                    <rect id="Rectangle" fill="#F5A623" x="0" y="0" width="64" height="64" rx="4"></rect>
                    <g id="trophy" transform="translate(9.600000, 9.600000)" fill="#121215" fill-rule="nonzero">
                        <path d="M42.56,4.48 L35.84,4.48 L35.84,2.24 C35.84,1.00288216 34.8371178,0 33.6,0 L11.2,0 C9.96288216,0 8.96,1.00288216 8.96,2.24 L8.96,4.48 L2.24,4.48 C1.00288216,4.48 0,5.48288216 0,6.72 L0,13.44 C0,18.3884714 4.01152864,22.4 8.96,22.4 L12.4096,22.4 C14.4357583,24.6604849 17.1674963,26.1684674 20.16,26.6784 L20.16,31.36 L17.92,31.36 C14.2086465,31.36 11.2,34.3686465 11.2,38.08 L11.2,42.56 C11.2,43.7971178 12.2028822,44.8 13.44,44.8 L31.36,44.8 C32.5971178,44.8 33.6,43.7971178 33.6,42.56 L33.6,38.08 C33.6,34.3686465 30.5913535,31.36 26.88,31.36 L24.64,31.36 L24.64,26.6784 C27.6325037,26.1684674 30.3642417,24.6604849 32.3904,22.4 L35.84,22.4 C40.7884714,22.4 44.8,18.3884714 44.8,13.44 L44.8,6.72 C44.8,5.48288216 43.7971178,4.48 42.56,4.48 Z M8.96,17.92 C6.48576432,17.92 4.48,15.9142357 4.48,13.44 L4.48,8.96 L8.96,8.96 L8.96,13.44 C8.96492966,14.9670281 9.23005831,16.482049 9.744,17.92 L8.96,17.92 Z M26.88,35.84 C28.1171178,35.84 29.12,36.8428822 29.12,38.08 L29.12,40.32 L15.68,40.32 L15.68,38.08 C15.68,36.8428822 16.6828822,35.84 17.92,35.84 L26.88,35.84 Z M31.36,13.44 C31.36,18.3884714 27.3484714,22.4 22.4,22.4 C17.4515286,22.4 13.44,18.3884714 13.44,13.44 L13.44,4.48 L31.36,4.48 L31.36,13.44 Z M40.32,13.44 C40.32,15.9142357 38.3142357,17.92 35.84,17.92 L35.056,17.92 C35.5699417,16.482049 35.8350703,14.9670281 35.84,13.44 L35.84,8.96 L40.32,8.96 L40.32,13.44 Z" id="Shape"></path>
                    </g>
                </g>
            </g>
        </g>
    </g>
</svg>