<?xml version="1.0" encoding="UTF-8"?>
<svg width="15px" height="15px" viewBox="0 0 15 15" version="1.1" xmlns="http://www.w3.org/2000/svg" xmlns:xlink="http://www.w3.org/1999/xlink">
    <!-- Generator: Sketch 55.1 (78136) - https://sketchapp.com -->
    <title>search</title>
    <desc>Created with Sketch.</desc>
    <g id="Page-2" stroke="none" stroke-width="1" fill="none" fill-rule="evenodd">
        <g id="Desktop-HD" transform="translate(-830.000000, -41.000000)" fill="#F5A623" fill-rule="nonzero">
            <g id="Group-7" transform="translate(830.000000, 38.000000)">
                <g id="search" transform="translate(0.000000, 3.000000)">
                    <path d="M14.7928571,13.7785714 L12.1428571,11.15 C14.2787243,8.48688912 13.9605519,4.61876646 11.4182286,2.34046008 C8.87590523,0.0621536906 4.99617123,0.168317058 2.58224414,2.58224414 C0.168317058,4.99617123 0.0621536906,8.87590523 2.34046008,11.4182286 C4.61876646,13.9605519 8.48688912,14.2787243 11.15,12.1428571 L13.7785714,14.7714286 C13.9126904,14.9066519 14.0952589,14.9827131 14.2857143,14.9827131 C14.4761697,14.9827131 14.6587381,14.9066519 14.7928571,14.7714286 C15.0604669,14.4945738 15.0604669,14.0554262 14.7928571,13.7785714 Z M7.14285714,12.1428571 C4.38143339,12.1428571 2.14285714,9.90428089 2.14285714,7.14285714 C2.14285714,4.38143339 4.38143339,2.14285714 7.14285714,2.14285714 C9.90428089,2.14285714 12.1428571,4.38143339 12.1428571,7.14285714 C12.1428571,8.46893959 11.6160729,9.74070916 10.678391,10.678391 C9.74070916,11.6160729 8.46893959,12.1428571 7.14285714,12.1428571 Z" id="Shape"></path>
                </g>
            </g>
        </g>
    </g>
</svg>